<svg xmlns="http://www.w3.org/2000/svg" xmlns:xlink="http://www.w3.org/1999/xlink" width="60" height="60"><defs><circle id="a" cx="30" cy="30" r="30"/></defs><g fill="none" fill-rule="evenodd"><mask id="b" fill="#fff"><use xlink:href="#a"/></mask><g mask="url(#b)"><circle cx="30" cy="30" r="30" fill="#0095FF" fill-rule="nonzero"/><path fill="#FFF" d="m0 24.48 2.244-5.23h3.88l1.273 2.93v-2.93h4.823l.758 2.118.735-2.118h21.651v1.065s1.139-1.065 3.01-1.065l7.024.025 1.252 2.891V19.25h4.036l1.11 1.661V19.25h4.074v9.397h-4.073l-1.065-1.667v1.667h-5.93l-.597-1.482h-1.594l-.586 1.482h-4.022c-1.61 0-2.639-1.043-2.639-1.043v1.043h-6.063l-1.204-1.482v1.482H5.55l-.596-1.482h-1.59l-.591 1.482H0V24.48zm3.038-4.072L.012 27.444h1.97l.558-1.409h3.246l.556 1.41h2.013l-3.023-7.037H3.038zm1.12 1.638.989 2.462H3.165l.993-2.462zm4.406-1.639v7.036h1.759v-5.184l1.87 5.184h1.542l1.865-5.184v5.184h1.759v-7.036H14.58l-1.59 4.547-1.627-4.536-2.8-.01zm9.997 7.036v-7.036h5.74v1.574H20.34v1.203h3.87v1.482h-3.87v1.25h3.96v1.527h-5.74zm6.759.001v-7.036h3.914c1.297 0 2.46.802 2.46 2.283 0 1.266-.98 2.081-1.93 2.161l2.314 2.592h-2.15l-2.109-2.5h-.74v2.5h-1.76zm3.77-5.462h-2.011v1.481h2.036c.353 0 .808-.273.808-.74 0-.364-.351-.74-.834-.74zm5.118 5.461h-1.796v-7.036h1.796v7.036zm3.87 0h.388l.74-1.537h-.462c-1.12 0-1.898-.572-1.898-1.935 0-1.147.68-1.897 1.641-1.897h2.016v-1.667h-1.944c-2.37 0-3.495 1.486-3.495 3.547 0 2.011 1.139 3.489 3.014 3.489zm4.215-7.035-3.026 7.036h1.97l.558-1.409h3.246l.556 1.41h2.013l-3.023-7.037h-2.294zm1.12 1.638.99 2.462H42.42l.993-2.462zm4.403-1.639v7.036h1.76v-4.536l2.927 4.536h2.164v-7.036h-1.76v4.42l-2.855-4.42h-2.236zM11.618 31.563v9.396h9.886l1.083-1.421 1.066 1.421h5.97v-2.175h1.343c1.165 0 1.704-.353 1.704-.353v2.528h3.943v-1.481l1.204 1.481h19.996c1.093-.01 2.037-.648 2.037-.648v-1.9c-.288.79-.995 1.345-2.145 1.345h-3.748v-1.528h3.52c.52 0 .746-.281.746-.59 0-.296-.225-.595-.746-.595h-1.591c-1.383 0-2.153-.842-2.153-2.107 0-1.128.705-2.216 2.76-2.216h3.357v-1.157H23.737l-1.103 1.391-1.067-1.391h-9.95zm48.232 1.303-.672 1.437h-2.963c-.566 0-.74.297-.74.58 0 .293.215.614.648.614h1.666c1.127 0 1.787.467 2.061 1.166v-3.797zm-47.029-.146v7.036h5.74v-1.528h-3.962v-1.25h3.87v-1.48h-3.87v-1.204h3.962V32.72h-5.74zm33.865 7.036h-5.74V32.72h5.74v1.574h-3.962v1.203h3.85v1.481h-3.85v1.25h3.962v1.528zM21.578 36.28l-2.794 3.475h2.184l1.614-2.167 1.655 2.167h2.215l-2.8-3.518 2.824-3.518h-2.13l-1.709 2.202-1.704-2.202h-2.216l2.861 3.561zm5.084-3.56v7.036h1.805v-2.222h1.852c1.566 0 2.754-.831 2.754-2.447 0-1.34-.931-2.367-2.526-2.367h-3.885zm1.805 1.591h1.95c.506 0 .868.31.868.81 0 .47-.36.81-.874.81h-1.944v-1.62zm7.128 5.444h-1.759V32.72h3.914c1.297 0 2.46.802 2.46 2.283 0 1.265-.98 2.08-1.93 2.16l2.314 2.593h-2.15l-2.108-2.5h-.741v2.5zm2.01-5.462h-2.01v1.481h2.037c.352 0 .807-.273.807-.74 0-.364-.351-.741-.833-.741zm9.896 5.462v-1.528h3.52c.521 0 .747-.281.747-.59 0-.296-.225-.595-.747-.595h-1.59c-1.383 0-2.153-.842-2.153-2.107 0-1.128.705-2.216 2.76-2.216h3.425l-.74 1.583H49.76c-.566 0-.74.297-.74.58 0 .293.215.614.647.614h1.667c1.541 0 2.21.875 2.21 2.02 0 1.23-.745 2.239-2.294 2.239h-3.749z"/></g></g></svg>