<svg xmlns="http://www.w3.org/2000/svg" xmlns:xlink="http://www.w3.org/1999/xlink" width="60" height="60"><defs><circle id="a" cx="30" cy="30" r="30"/></defs><g fill="none" fill-rule="evenodd"><mask id="b" fill="#fff"><use xlink:href="#a"/></mask><g mask="url(#b)"><circle cx="30" cy="30" r="30" fill="#000" fill-rule="nonzero"/><path fill="#FFFFFE" d="M26.952 39.129h2.913V22.807h-2.913zm5.405 0h2.914V28.318h-2.914zm15.971 0-4.378-5.721 4.027-5.09h-3.44l-3.861 4.938V22.807h-2.913v16.322h2.913v-5.551l3.861 5.551h3.791m-28.8-2.791a2.615 2.615 0 1 1 0-5.23 2.615 2.615 0 0 1 0 5.23zm0-8.143c-.946 0-1.836.238-2.615.657v-6.045H14v10.916a5.528 5.528 0 1 0 5.528-5.528z"/><path fill="#FFF" d="M24.969 24.597a2.598 2.598 0 1 1-5.196 0 2.598 2.598 0 0 1 5.196 0"/></g></g></svg>