<svg xmlns="http://www.w3.org/2000/svg" xmlns:xlink="http://www.w3.org/1999/xlink" width="60" height="60"><defs><circle id="a" cx="30" cy="30" r="30"/></defs><g fill="none" fill-rule="evenodd"><mask id="b" fill="#fff"><use xlink:href="#a"/></mask><g mask="url(#b)"><circle cx="30" cy="30" r="30" fill="#FFF" fill-rule="nonzero"/><path fill="#231F20" d="M13.036 22.237h1.888v17.665h-1.888V22.237m2.482 0h.584v17.665h-.584V22.237m1.095 0h1.046v17.665h-1.046V22.237m2.055 0h.584v17.665h-.584V22.237m.838 0h.451v17.665h-.451V22.237m-7.904 0h.585v17.665h-.585V22.237m-1.289 0h1.047v17.665h-1.047V22.237m12.768 0h1.888v17.665h-1.888V22.237m2.483 0h.583v17.665h-.583V22.237m1.094 0h1.047v17.665h-1.047V22.237m2.055 0h.584v17.665h-.584V22.237m.839 0h.451v17.665h-.451V22.237m-7.905 0h.585v17.665h-.585V22.237m-1.289 0h1.047v17.665h-1.047V22.237m10.385 0h1.047v17.665h-1.047V22.237m2.056 0h.585v17.665h-.585V22.237m.84 0h.449v17.665h-.449V22.237m2.139 0h.585v17.665h-.585V22.237m-1.289 0h1.047v17.665h-1.047V22.237m2.651 0h.585v17.665h-.585V22.237m.84 0h.451v17.665h-.451V22.237m2.141 0h.584v17.665h-.584V22.237m-1.291 0h1.047v17.665H38.83V22.237m2.385 0h1.886v17.665h-1.886V22.237m2.481 0h.585v17.665h-.585V22.237m1.094 0h1.047v17.665H44.79V22.237m2.056 0h.585v17.665h-.585V22.237m.838 0h.451v17.665h-.451V22.237m1.193 0h1.045v17.665h-1.045V22.237"/><path fill="#FFF" d="M12.447 39.943H48.61v-9.901H12.447v9.901"/><path fill="#231F20" fill-rule="nonzero" d="M13.128 39.564v-8.96h3.361c.686 0 1.234.091 1.648.273.413.181.736.46.97.838.236.375.352.769.352 1.182 0 .38-.104.742-.31 1.08-.207.338-.52.61-.939.819.542.158.96.43 1.249.813.293.382.437.835.437 1.356 0 .421-.089.811-.266 1.171-.176.362-.396.638-.657.834a2.77 2.77 0 0 1-.98.443c-.393.1-.875.15-1.447.15h-3.418zm1.19-5.194h1.935c.525 0 .903-.035 1.13-.104.302-.09.53-.24.683-.448.152-.209.229-.469.229-.784 0-.298-.07-.56-.215-.786a1.075 1.075 0 0 0-.611-.467c-.264-.084-.72-.126-1.361-.126h-1.791v2.715zm0 4.141h2.23c.384 0 .654-.013.81-.043.27-.047.5-.129.683-.244.184-.115.333-.281.453-.5.119-.219.177-.472.177-.758a1.48 1.48 0 0 0-.259-.873 1.354 1.354 0 0 0-.712-.522c-.303-.1-.74-.15-1.31-.15h-2.072v3.09m6.655-2.194c0-1.2.333-2.088 1.003-2.666.557-.48 1.238-.719 2.041-.719.891 0 1.621.291 2.187.876.566.581.85 1.388.85 2.416 0 .834-.125 1.49-.376 1.966a2.66 2.66 0 0 1-1.094 1.115c-.478.264-1 .395-1.567.395-.908 0-1.642-.29-2.203-.872-.56-.58-.841-1.419-.841-2.512zm1.127 0c0 .83.181 1.452.543 1.864.365.412.822.619 1.374.619.547 0 1-.207 1.367-.622.362-.414.544-1.047.544-1.896 0-.8-.184-1.407-.549-1.817a1.744 1.744 0 0 0-1.362-.62c-.552 0-1.009.204-1.374.616-.362.41-.543 1.03-.543 1.857m6.219 3.246v-8.96h1.101v8.96h-1.101m7.234-2.103 1.138.15c-.178.66-.508 1.177-.993 1.54-.483.367-1.1.55-1.854.55-.946 0-1.696-.292-2.252-.877-.553-.58-.831-1.4-.831-2.454 0-1.088.279-1.935.84-2.535.561-.602 1.289-.903 2.184-.903.865 0 1.572.294 2.12.884.549.59.824 1.42.824 2.49 0 .064-.003.162-.007.292h-4.834c.04.71.24 1.257.604 1.634.36.378.813.568 1.352.568.404 0 .748-.107 1.03-.32.287-.212.511-.552.68-1.02zm-3.603-1.764h3.616c-.05-.547-.189-.956-.416-1.228a1.678 1.678 0 0 0-1.36-.636c-.504 0-.927.169-1.271.506-.342.339-.533.791-.57 1.358m8.523 2.883.15.973a4.073 4.073 0 0 1-.827.097c-.4 0-.707-.062-.93-.19a1.082 1.082 0 0 1-.463-.498c-.089-.206-.132-.64-.132-1.301v-3.74h-.814v-.852h.814v-1.605l1.1-.66v2.265h1.102v.852h-1.101v3.802c0 .316.019.518.058.607.038.09.1.161.188.215.087.052.213.08.375.08.12 0 .282-.015.48-.045m.673-2.263c0-1.2.334-2.088 1.003-2.666.557-.48 1.24-.719 2.04-.719.892 0 1.622.291 2.19.876.564.581.848 1.388.848 2.416 0 .834-.126 1.49-.376 1.966a2.66 2.66 0 0 1-1.094 1.115 3.189 3.189 0 0 1-1.567.395c-.909 0-1.643-.29-2.203-.872-.561-.58-.841-1.419-.841-2.512zm1.126 0c0 .83.182 1.452.545 1.864.364.412.822.619 1.373.619a1.74 1.74 0 0 0 1.366-.622c.363-.414.545-1.047.545-1.896 0-.8-.183-1.407-.549-1.817a1.746 1.746 0 0 0-1.362-.62c-.551 0-1.009.204-1.373.616-.363.41-.545 1.03-.545 1.857"/></g></g></svg>