<svg xmlns="http://www.w3.org/2000/svg" width="60" height="60"><g fill="none" fill-rule="evenodd"><circle cx="30" cy="30" r="30" fill="#F7931A"/><path fill="#FFF" fill-rule="nonzero" d="M40.94 27.06c.479-3.151-1.958-4.846-5.288-5.977l1.08-4.27-2.637-.648-1.053 4.159c-.692-.172-1.404-.331-2.113-.49l1.06-4.186L29.352 15l-1.08 4.27c-.574-.13-1.139-.256-1.685-.392l.003-.013-3.638-.895-.702 2.776s1.958.442 1.917.47c1.068.263 1.26.959 1.228 1.512l-1.23 4.865c.074.018.168.045.275.086l-.28-.068-1.724 6.816c-.131.318-.462.798-1.21.616.028.038-1.917-.47-1.917-.47L18 37.546l3.434.844c.638.158 1.263.323 1.878.478l-1.09 4.319 2.635.647 1.08-4.271c.72.19 1.42.368 2.103.537l-1.077 4.252L29.6 45l1.09-4.31c4.5.84 7.881.5 9.305-3.508 1.148-3.228-.056-5.09-2.423-6.305 1.724-.39 3.021-1.508 3.368-3.816zm-6.028 8.329c-.814 3.229-6.33 1.483-8.119 1.045l1.45-5.722c1.788.44 7.522 1.311 6.669 4.677zm.816-8.375c-.743 2.937-5.333 1.444-6.821 1.078l1.312-5.188c1.488.366 6.285 1.047 5.51 4.11z"/></g></svg>