<svg xmlns="http://www.w3.org/2000/svg" width="60" height="60"><g fill="none" fill-rule="evenodd"><path fill="#C3A634" d="M30 0C13.431 0 0 13.431 0 30c0 16.569 13.431 30 30 30 16.569 0 30-13.431 30-30C60 13.431 46.569 0 30 0z"/><path fill="#FFF" d="M26.255 27.969h6.34v3.43h-6.34v7.238h3.998c1.573 0 2.866-.226 3.88-.662 1-.451 1.793-1.053 2.366-1.82v-.016a6.841 6.841 0 0 0 1.161-2.738h-.014c.205-1.129.308-2.257.308-3.401v-.015a17.56 17.56 0 0 0-.323-3.4l-.015-.016a6.853 6.853 0 0 0-1.176-2.738c-.587-.777-1.366-1.385-2.38-1.821-1.014-.451-2.308-.662-3.886-.662h-4.008v6.5l.089.12zm-4.065 3.43H20v-3.438h2.175V18h9.611c1.778 0 3.307.316 4.615.933 1.293.617 2.351 1.49 3.174 2.573s1.426 2.362 1.837 3.822c.397 1.46.588 3.024.588 4.68l-.015-.016c0 1.58-.205 3.16-.602 4.68-.412 1.46-1.014 2.724-1.837 3.822-.823 1.083-1.884 1.941-3.19 2.573-1.307.617-2.85.933-4.629.933h-9.625V31.302l.088.097z"/></g></svg>