<svg xmlns="http://www.w3.org/2000/svg" width="36" height="36">
  <g fill="none" fill-rule="evenodd">
    <path fill="#00d7f4" d="M36 18c0 9.941-8.059 18-18 18S0 27.941 0 18 8.059 0 18 0s18 8.059 18 18"/>
    <path fill="#212126" d="M23.828 8.816s-.507-4.764-2.788-4.764c-.684 0-1.231.082-1.662.197a5.326 5.326 0 0 1-2.757 0 6.436 6.436 0 0 0-1.663-.197c-2.28 0-2.787 4.764-2.787 4.764s5.676 1.673 11.657 0m-7.071 9.994c.262-.015.33-.367.095-.48-.38-.184-.75-.387-1.11-.604-.39-.24-.768-.496-1.131-.772-.217-.167-.446-.339-.66-.525a.253.253 0 0 0-.417.141l-.316 1.65a.255.255 0 0 0 .209.301c.812.13 1.632.226 2.45.277.293.017.59.028.88.011m2.483.001c.294.016.59.005.88-.012.82-.051 1.639-.147 2.454-.277a.257.257 0 0 0 .208-.301l-.318-1.65a.253.253 0 0 0-.418-.14c-.211.185-.442.357-.66.524-.36.276-.738.533-1.13.772-.358.217-.73.42-1.108.604-.237.113-.17.465.093.48m-.271 2.737a.62.62 0 1 0 0-1.24.62.62 0 0 0 0 1.24m-2.563-.62a.622.622 0 0 0 1.243 0 .62.62 0 0 0-1.243 0m4.751 1.523a.312.312 0 0 0-.422-.293l-5.61 2.103c-.304.112-.253.558.068.597 1.05.136 2.656.272 4.223.124l.907.773a.285.285 0 0 0 .405-.038l1.361-1.691a.284.284 0 0 0-.058-.41l-.874-.613v-.553z"/>
    <path fill="#212126" d="m26.77 16.226-.195-.93s3.338-1.125 3.493 1.745c.155 2.873-2.329 4.266-2.329 4.266l-.426-2.405 1.202.547s-.195-1.438-1.046-1.824c0 0 1.28-.544 1.59 0 0 0 .022-.37-.06-.776-.143-.699-.896-1.094-1.567-.857l-.663.234zm-2.14 9.21-1.397-.98a.22.22 0 0 0-.297.044l-.771.966-.153.187a6.598 6.598 0 0 1-.71.933c-.7.764-1.805 1.596-3.302 1.596-2.673 0-4.1-2.66-4.187-2.826l.307 1.427s-3.454-.465-3.18-2.87c.27-2.408 3.88-3.573 3.88-3.573s-3.376-.155-3.066-3.065c.31-2.91 5-2.019 6.246-2.019 1.246 0 5.935-.89 6.246 2.02.31 2.91-3.065 3.064-3.065 3.064s3.609 1.165 3.88 3.573a1.968 1.968 0 0 1-.432 1.522zm-15.4-9.21-.662-.234c-.67-.237-1.424.158-1.568.857-.081.406-.059.776-.059.776.31-.544 1.59 0 1.59 0-.851.386-1.046 1.824-1.046 1.824l1.202-.547-.426 2.405s-2.484-1.393-2.33-4.266c.156-2.87 3.494-1.745 3.494-1.745l-.194.93zm-.442 9.404C10.035 29.254 18 31.813 18 31.813s3.707-1.186 5.608-3.262l.545.463.456.389 2.88 2.373a.72.72 0 0 0 1.033-.104l1.268-1.613a.722.722 0 0 0-.152-1.035l-2.77-2.018c.214-.426.344-.888.344-1.376l1.52.304-.863-2.18s3.97-3.394 3.97-5.929c0-3.882-2.65-4.055-2.65-4.055.738-.175 1.012-1.018.575-1.615-.457-.63-1.407-.976-2.135-1.131-1.01-.217-2.067-.192-3.084-.068-.51.062-5.248.739-6.325.733h-.437c-1.077.006-5.817-.67-6.327-.733-1.018-.124-2.076-.15-3.085.068-.728.155-1.678.502-2.135 1.13-.437.598-.163 1.441.576 1.616 0 0-2.651.173-2.651 4.055 0 2.535 3.97 5.93 3.97 5.93l-.863 2.18 1.52-.305z"/>
  </g>
</svg>
