<svg xmlns="http://www.w3.org/2000/svg" width="44" height="44">
  <g fill="#21201e" fill-rule="evenodd">
    <path d="M29.047 10.776s-.618-5.823-3.398-5.823c-.834 0-1.502.1-2.027.24a6.468 6.468 0 0 1-3.36 0c-.526-.14-1.193-.24-2.027-.24-2.78 0-3.398 5.823-3.398 5.823s6.92 2.044 14.21 0m-8.62 12.213c.32-.017.402-.448.117-.586a16.71 16.71 0 0 1-1.355-.737 17.041 17.041 0 0 1-1.378-.945c-.265-.203-.543-.413-.804-.64a.309.309 0 0 0-.51.172l-.384 2.016a.312.312 0 0 0 .254.368c.99.159 1.99.276 2.987.338.358.02.719.035 1.073.014m3.028 0c.357.02.718.007 1.072-.014 1-.062 1.997-.179 2.99-.338a.314.314 0 0 0 .255-.368l-.388-2.016a.308.308 0 0 0-.509-.173c-.258.228-.54.438-.804.641a15.756 15.756 0 0 1-2.729 1.682c-.29.138-.207.569.113.586m-.33 3.346a.759.759 0 0 0 0-1.516.755.755 0 0 0-.756.758c0 .417.337.758.756.758M20 25.577a.759.759 0 1 0 1.514-.002.759.759 0 0 0-1.514.002m5.792 1.861a.38.38 0 0 0-.514-.357l-6.838 2.57c-.371.137-.31.682.082.73 1.28.166 3.238.332 5.147.15l1.106.946a.346.346 0 0 0 .494-.047l1.66-2.066a.348.348 0 0 0-.072-.502l-1.065-.749v-.675z"/>
    <path d="m32.632 19.832-.237-1.137s4.07-1.375 4.259 2.133c.189 3.512-2.84 5.214-2.84 5.214l-.518-2.94 1.464.67s-.237-1.758-1.275-2.23c0 0 1.56-.666 1.938 0 0 0 .028-.452-.072-.948-.175-.855-1.093-1.337-1.91-1.048l-.809.286zm-2.608 11.256-1.702-1.196a.266.266 0 0 0-.363.052l-.94 1.182-.185.227a8.098 8.098 0 0 1-.866 1.14c-.853.935-2.2 1.951-4.026 1.951-3.258 0-4.997-3.25-5.104-3.453l.375 1.744s-4.21-.569-3.877-3.508c.33-2.943 4.73-4.367 4.73-4.367s-4.115-.19-3.737-3.746c.378-3.556 6.094-2.467 7.613-2.467 1.52 0 7.236-1.09 7.614 2.467.378 3.557-3.736 3.746-3.736 3.746s4.4 1.424 4.73 4.367c.089.775-.141 1.385-.526 1.86zM11.253 19.832l-.808-.286c-.818-.29-1.736.193-1.911 1.048-.1.496-.073.947-.073.947.379-.665 1.94 0 1.94 0-1.039.473-1.276 2.23-1.276 2.23l1.464-.668-.519 2.94s-3.028-1.703-2.839-5.215c.19-3.508 4.259-2.133 4.259-2.133l-.237 1.137zm-.54 11.493c1.52 4.43 11.23 7.558 11.23 7.558s4.518-1.45 6.836-3.987l.664.565.556.476 3.512 2.9a.873.873 0 0 0 1.257-.127l1.547-1.972a.882.882 0 0 0-.185-1.264l-3.377-2.467c.26-.52.42-1.085.42-1.682l1.852.373-1.052-2.664s4.84-4.15 4.84-7.248c0-4.744-3.232-4.956-3.232-4.956.901-.213 1.235-1.244.702-1.974-.557-.769-1.715-1.193-2.602-1.382-1.23-.266-2.52-.235-3.76-.083-.623.076-6.397.903-7.71.896h-.533c-1.313.007-7.091-.82-7.713-.896-1.241-.152-2.53-.183-3.76.083-.888.19-2.046.613-2.603 1.382-.533.73-.2 1.76.701 1.974 0 0-3.23.212-3.23 4.956 0 3.098 4.84 7.248 4.84 7.248L8.86 31.698l1.853-.373z"/>
  </g>
</svg>
