<svg xmlns="http://www.w3.org/2000/svg" xmlns:xlink="http://www.w3.org/1999/xlink" width="60" height="60"><defs><circle id="a" cx="30" cy="30" r="30"/></defs><g fill="none" fill-rule="evenodd"><mask id="b" fill="#fff"><use xlink:href="#a"/></mask><g mask="url(#b)"><circle cx="30" cy="30" r="30" fill="#0086E6" fill-rule="nonzero"/><path fill="#CDE9FD" fill-rule="nonzero" d="M39.405 24.352c.306-1.945-.002-3.268-1.058-4.467-1.161-1.32-3.26-1.885-5.946-1.885h-7.795c-.55 0-1.017.398-1.102.939l-3.246 20.516a.668.668 0 0 0 .66.771h4.813l-.332 2.1a.584.584 0 0 0 .578.674h4.057c.48 0 .889-.348.964-.821l.04-.206.764-4.83.049-.267a.974.974 0 0 1 .963-.82h.607c3.93 0 7.007-1.592 7.906-6.194.376-1.923.182-3.529-.812-4.657a3.87 3.87 0 0 0-1.11-.853z"/><path fill="#FFF" d="M39.405 24.352c.306-1.945-.002-3.268-1.058-4.467-1.161-1.32-3.26-1.885-5.946-1.885h-7.795c-.55 0-1.017.398-1.102.939l-3.246 20.516a.668.668 0 0 0 .66.771h4.813l1.21-7.64-.038.239A1.11 1.11 0 0 1 28 31.886h2.288c4.492 0 8.01-1.819 9.037-7.08.03-.155.057-.306.08-.454z" opacity=".68"/><path fill="#FFF" d="M28.239 24.377a.969.969 0 0 1 .543-.725.973.973 0 0 1 .42-.096h6.111c.724 0 1.4.048 2.016.147a7.98 7.98 0 0 1 1.231.293c.303.1.586.219.845.356.306-1.945-.002-3.268-1.057-4.467C37.186 18.565 35.087 18 32.401 18h-7.795c-.55 0-1.017.398-1.102.939l-3.246 20.516a.668.668 0 0 0 .66.771h4.813l1.21-7.64 1.298-8.209z"/></g></g></svg>