<svg xmlns="http://www.w3.org/2000/svg" width="60" height="60"><g fill-rule="nonzero" fill="none"><circle cx="30" cy="30" r="30" fill="#A4E3FF"/><path fill="#F20600" d="M23.305 25.583c.38-.135.686-.238.98-.38.572-2.537 2.945-4.498 5.691-4.548 2.944.05 5.318 2.014 5.887 4.549.864.24 1.586.585 2.158 1.137.014-.54-.007-1.024 0-1.517-.428-3.912-3.821-7.012-8.045-7.012-4.175 0-7.643 3.296-7.849 7.392.001.379-.006.75 0 1.137.365-.295.773-.56 1.178-.758zm11.405 1.254h-9.616c-.467 0-.945.103-1.373.379-.538.136-.927.377-1.177.758-.656.596-.96 1.603-.982 2.843v7.39c.022 1.241.326 2.247.982 2.843.25.382.639.623 1.177.758.428.275.906.38 1.373.38h9.615c2.43-.022 3.689-1.33 3.728-3.98v-7.391c-.039-2.656-1.297-3.96-3.728-3.98z"/></g></svg>