<svg xmlns="http://www.w3.org/2000/svg" xmlns:xlink="http://www.w3.org/1999/xlink" width="60" height="60"><defs><circle id="a" cx="30" cy="30" r="30"/></defs><g fill="none" fill-rule="evenodd"><mask id="b" fill="#fff"><use xlink:href="#a"/></mask><g fill-rule="nonzero" mask="url(#b)"><circle cx="30" cy="30" r="30" fill="#FFF"/><path fill="#2D3540" d="M29.367 32.638h.649v1.453h.468l.841-1.453h.71l-1.01 1.706v.012l1.07 1.861h-.734l-.865-1.562h-.468v1.562h-.649v-3.58h-.012v.001zm4.18.949c.78 0 1.418.564 1.418 1.345 0 .793-.625 1.346-1.405 1.346-.781 0-1.406-.553-1.406-1.346-.012-.792.613-1.345 1.394-1.345zm1.922.06h.613v2.018h.805v-2.018h.612v2.018h.805v-2.018h.613v2.57h-3.424v-2.57h-.024zm5.262-.06c.732 0 1.14.54 1.14 1.213-.002.085-.01.169-.023.252h-1.766c.036.445.384.685.769.685.264 0 .528-.12.732-.276l.253.456a1.65 1.65 0 0 1-1.033.373c-.853 0-1.382-.613-1.382-1.346 0-.804.54-1.357 1.31-1.357zm1.44 2.09c.313-.048.541-.312.541-1.225v-.805h1.874v2.57h-.637v-2.053h-.624v.288c0 1.117-.3 1.766-1.153 1.79v-.564zm4.24-2.09c.733 0 1.142.54 1.142 1.213-.002.085-.01.169-.024.252h-1.766c.036.445.385.685.77.685.263 0 .527-.12.732-.276l.252.456c-.264.228-.66.373-1.033.373-.853 0-1.381-.613-1.381-1.346 0-.804.54-1.357 1.309-1.357zm1.67.06h.637v.985h.313l.624-.985h.709l-.817 1.225v.012l.913 1.333h-.745l-.673-1.044h-.336v1.044h-.637v-2.57h.012zm-14.533 2.077c.42 0 .768-.324.768-.805 0-.468-.348-.805-.769-.805-.42 0-.756.325-.756.805 0 .48.336.805.757.805zm7.675-1.117c0-.336-.228-.54-.517-.54-.324 0-.564.216-.624.54h1.141zm5.681 0c0-.336-.228-.54-.516-.54-.325 0-.565.216-.625.54h1.141z"/><path fill="#FF8C00" d="M38.34 24.842v6.066a.162.162 0 0 1-.048.12.16.16 0 0 1-.12.048h-1.237a.164.164 0 0 1-.168-.168v-6.066a.165.165 0 0 1 .168-.168h1.237c.045 0 .088.017.12.048.032.032.05.076.048.12zm9.657-.168c.049 0 .109.024.168.072.037.036.037.096.025.145l-2.042 6.077a.173.173 0 0 1-.156.109h-1.105c-.073 0-.133-.037-.157-.109l-1.19-3.543-1.188 3.543a.172.172 0 0 1-.156.108H41.09c-.072 0-.132-.036-.156-.108l-2.042-6.078c-.012-.048-.012-.096.024-.144.024-.048.085-.072.132-.072h1.382c.072 0 .132.048.156.12l1.093 3.592 1.201-3.592a.172.172 0 0 1 .156-.108h.973c.072 0 .132.036.156.108l1.202 3.592 1.093-3.592a.166.166 0 0 1 .156-.12h1.381zm2.09 0c.084 0 .156.072.168.168v6.066a.162.162 0 0 1-.048.12.158.158 0 0 1-.12.048H48.85a.164.164 0 0 1-.168-.168v-6.066c0-.044.017-.088.048-.12a.168.168 0 0 1 .12-.048h1.237zm-14.041 6.187c.072.084.012.203-.096.203h-1.514a.193.193 0 0 1-.156-.072l-.252-.312a3.387 3.387 0 0 1-1.814.54 3.351 3.351 0 1 1 3.351-3.351c0 .661-.192 1.286-.528 1.814l1.009 1.177zm-12.649 2.942c.313.12.433.589.457.793.048.372-.06.516-.18.516s-.289-.144-.468-.432c-.18-.288-.253-.613-.157-.78.06-.11.192-.157.349-.097zm-1.825 1.358c.192 0 .408.084.6.252.373.312.481.672.289.937a.634.634 0 0 1-.493.216.857.857 0 0 1-.564-.204c-.337-.289-.432-.77-.217-1.033a.466.466 0 0 1 .385-.168zm-4.204 3.47a8.262 8.262 0 0 1-8.264-8.262 8.264 8.264 0 1 1 16.528-.001c0 1.55-.432 3.003-1.165 4.24-.024.036-.084.024-.096-.024-.288-2.03-1.526-3.147-3.327-3.483-.157-.025-.18-.12.023-.145.553-.048 1.334-.036 1.742.036a5.47 5.47 0 0 0-5.429-6.102 5.47 5.47 0 0 0-5.466 5.466 5.47 5.47 0 0 0 5.466 5.465h.252a7.306 7.306 0 0 1-.108-1.477c.012-.337.084-.385.228-.12.757 1.309 1.838 2.486 3.952 2.954 1.73.385 3.46.83 5.321 3.195.168.205-.084.42-.276.253-1.898-1.682-3.627-2.235-5.201-2.235-1.766.013-2.967.24-4.18.24zm15.676-9.115-.66-.805c-.073-.084-.012-.216.095-.216h1.394c.072-.192.108-.408.108-.625 0-.996-.745-1.861-1.766-1.861-1.02 0-1.766.865-1.766 1.861 0 .997.745 1.85 1.766 1.85.288.012.577-.072.829-.204z"/></g></g></svg>