<svg xmlns="http://www.w3.org/2000/svg" width="60" height="60"><defs><filter id="a"><feColorMatrix in="SourceGraphic" values="0 0 0 0 0.360784 0 0 0 0 0.117647 0 0 0 0 0.364706 0 0 0 1.000000 0"/></filter></defs><g fill="none" fill-rule="evenodd"><rect width="60" height="60" fill="#FFF" fill-rule="nonzero" rx="30"/><g filter="url(#a)"><path fill="#FFF" fill-rule="nonzero" d="M37.411 26.988a1.452 1.452 0 1 0 0-2.901 1.452 1.452 0 0 0 0 2.9zm-11.12.783c-.066.165-.538 1.497-1.678 2.878v-5.903l-3.04.6v10.7h3.04V32.74c.88 1.32 1.314 3.307 1.314 3.307h3.64c-.36-1.496-1.935-4.256-1.935-4.256a13.305 13.305 0 0 0 2.133-4.019H26.29zm7.988-.111c-2.722.087-4.103 1.308-4.103 3.736v4.65h2.97v-3.792c0-1.454.19-2.077 1.914-2.136v-2.416c-.29-.061-.78-.042-.78-.042zm-17.802 1.29c-.372-.025-1.234-.08-1.234-.856 0-.936 1.24-.936 1.706-.936.818 0 1.878.241 2.635.468 0 0 .422.149.781.301l.034.009v-2.564l-.046-.013c-.893-.313-1.933-.613-3.857-.613-3.32 0-4.496 1.933-4.496 3.59 0 .955.41 3.203 4.211 3.462.323.02 1.178.07 1.178.87 0 .663-.7 1.053-1.878 1.053a9.252 9.252 0 0 1-3.304-.641v2.64c1.139.299 2.422.448 3.927.448 3.245 0 4.7-1.83 4.7-3.643 0-2.056-1.628-3.392-4.357-3.575zm19.462 7.096h2.945v-8.265H35.94v8.265zm8.492-10.774v10.774h2.945v-11.3l-2.945.526zm-4.299 0 2.943-.526v11.3h-2.943V25.272z"/></g></g></svg>