<svg xmlns="http://www.w3.org/2000/svg" xmlns:xlink="http://www.w3.org/1999/xlink" width="60" height="60"><defs><filter id="c"><feColorMatrix in="SourceGraphic" values="0 0 0 0 1.000000 0 0 0 0 1.000000 0 0 0 0 1.000000 0 0 0 1.000000 0"/></filter><circle id="a" cx="30" cy="30" r="30"/></defs><g fill="none" fill-rule="evenodd"><mask id="b" fill="#fff"><use xlink:href="#a"/></mask><g mask="url(#b)"><circle cx="30" cy="30" r="30" fill="#6AB644" fill-rule="nonzero"/><g filter="url(#c)"><path fill="#6AB644" d="M29.747 27.668H27.32c-.27.002-.356.091-.358.362-.002.282-.001.563 0 .844 0 .345.05.397.395.399h.931c.293 0 .294 0 .294.29v4.027c0 .082 0 .164.012.245.026.194.086.258.284.263.492.012.984.012 1.476.015.064 0 .129-.008.192-.018.143-.023.22-.093.247-.236.015-.08.016-.162.016-.244v-4.097c0-.239.007-.244.25-.245.358 0 .715.002 1.072-.001.082 0 .163-.014.244-.027.078-.013.123-.066.138-.141a.908.908 0 0 0 .016-.157c.001-.305.002-.61 0-.914-.002-.274-.086-.359-.356-.365h-2.426zm.01-2.537h3.813c.053 0 .105.002.158 0 .113-.007.13-.024.14-.135.005-.047.003-.094.003-.14 0-.545.007-1.09-.003-1.635a5.234 5.234 0 0 0-.068-.82 3.948 3.948 0 0 0-1.417-2.437c-.907-.746-1.951-1.051-3.124-.915a3.82 3.82 0 0 0-1.67.593c-1.251.814-1.893 1.977-1.932 3.467-.015.59-.004 1.183-.004 1.774 0 .248.001.248.256.248h3.848zm6.304-.012c.105.005.18.012.255.012.884 0 1.77-.002 2.654.003.319.002.629.064.917.209.546.273.738.72.62 1.297-.194.934-.412 1.862-.62 2.793-.373 1.679-.747 3.358-1.122 5.036-.105.474-.21.949-.32 1.422-.11.482-.347.88-.793 1.128-.267.149-.56.198-.86.212-.176.008-.352.001-.528.001H22.797c-.375 0-.734-.074-1.05-.29a1.562 1.562 0 0 1-.64-.957c-.144-.61-.279-1.22-.416-1.832l-1.51-6.748c-.055-.252-.122-.501-.158-.756a1.858 1.858 0 0 1-.004-.557c.053-.312.248-.538.52-.695a2.02 2.02 0 0 1 1.026-.263c.879-.006 1.758-.002 2.637-.003.262 0 .263 0 .263-.26V23.29c-.008-2.918 2.01-5.45 4.852-6.129a6.317 6.317 0 0 1 2.128-.123c1.216.124 2.3.576 3.25 1.338a6.202 6.202 0 0 1 2.226 3.586c.094.424.14.854.141 1.29l-.001 1.634v.233zm-4.516 15.103c-.023-1.296 1.094-2.467 2.5-2.452a2.491 2.491 0 0 1 2.446 2.493 2.49 2.49 0 0 1-2.55 2.461c-1.26-.031-2.432-1.103-2.396-2.502m-3.565.023c.026 1.345-1.11 2.482-2.473 2.48-1.366-.002-2.48-1.145-2.474-2.485a2.497 2.497 0 0 1 2.488-2.471c1.327.006 2.481 1.108 2.46 2.476"/></g></g></g></svg>