<svg xmlns="http://www.w3.org/2000/svg" width="90" height="22"><g fill="none" fill-rule="evenodd"><path fill="#FFFFFE" d="M85.222 10.887h1.356V8.454h1.798v2.433H90v1.334h-1.624v4.332c0 .189.008.351.024.487s.052.251.11.345a.521.521 0 0 0 .26.212c.116.047.273.07.474.07.126 0 .252-.002.378-.007s.252-.024.378-.055v1.381l-.583.063c-.19.02-.384.032-.583.032-.474 0-.855-.045-1.144-.134-.29-.089-.515-.22-.678-.392a1.355 1.355 0 0 1-.331-.652 4.899 4.899 0 0 1-.103-.894V12.22h-1.356v-1.334zm-4.637 6.922c.4 0 .747-.084 1.041-.251a2.18 2.18 0 0 0 .726-.66c.19-.271.328-.577.417-.917a4.063 4.063 0 0 0 0-2.08 2.752 2.752 0 0 0-.417-.918 2.234 2.234 0 0 0-.726-.652c-.294-.167-.64-.25-1.04-.25s-.747.083-1.041.25a2.234 2.234 0 0 0-.726.652 2.752 2.752 0 0 0-.417.918 4.087 4.087 0 0 0 0 2.08c.089.34.228.646.417.918.19.272.431.492.726.659.294.167.64.251 1.04.251zm0 1.413c-.651 0-1.232-.108-1.742-.322a3.703 3.703 0 0 1-1.293-.887 3.774 3.774 0 0 1-.804-1.35 5.143 5.143 0 0 1-.276-1.726c0-.618.091-1.188.276-1.711.183-.523.451-.973.804-1.35a3.716 3.716 0 0 1 1.293-.887c.51-.214 1.091-.322 1.742-.322.653 0 1.233.108 1.744.322.509.215.94.51 1.292.887.353.377.62.827.805 1.35.183.523.276 1.093.276 1.71 0 .629-.093 1.204-.276 1.727a3.776 3.776 0 0 1-.805 1.35 3.708 3.708 0 0 1-1.292.887c-.51.214-1.091.322-1.744.322zm-7.301-.22h1.798V7.795h-1.798v11.207zm-3.404 0h1.797v-8.115H69.88v8.115zm0-9.512h1.797V7.795H69.88V9.49zm-3.17 5.462c0-.366-.048-.722-.142-1.067a2.911 2.911 0 0 0-.426-.918 2.211 2.211 0 0 0-.71-.644 1.935 1.935 0 0 0-.977-.243c-.757 0-1.328.262-1.711.785-.384.523-.576 1.219-.576 2.087 0 .409.05.788.15 1.138.1.351.25.652.45.903.199.251.438.45.717.596.278.147.601.22.97.22.41 0 .757-.084 1.04-.251a2.2 2.2 0 0 0 .702-.651c.184-.267.316-.57.394-.91.08-.34.119-.689.119-1.045zm-6.277-4.065h1.703v1.099h.032c.252-.471.604-.808 1.056-1.012a3.51 3.51 0 0 1 1.467-.307c.641 0 1.201.113 1.68.338.478.225.875.534 1.19.926.316.392.552.85.71 1.373.158.524.237 1.083.237 1.68 0 .544-.071 1.073-.213 1.585a4.125 4.125 0 0 1-.647 1.358c-.29.392-.654.706-1.096.942-.442.235-.962.353-1.561.353-.263 0-.526-.024-.789-.07a3.502 3.502 0 0 1-.757-.228 3.002 3.002 0 0 1-.67-.4 2.244 2.244 0 0 1-.513-.574h-.031V22h-1.798V10.887zm-6.04 0h1.356V8.454h1.798v2.433h1.625v1.334h-1.625v4.332c0 .189.008.351.024.487s.052.251.11.345a.526.526 0 0 0 .26.212c.116.047.274.07.474.07.126 0 .252-.002.378-.007s.252-.024.379-.055v1.381l-.584.063c-.19.02-.384.032-.583.032-.473 0-.855-.045-1.144-.134-.289-.089-.515-.22-.678-.392a1.355 1.355 0 0 1-.331-.652 4.899 4.899 0 0 1-.103-.894V12.22h-1.356v-1.334zm-5.93 5.51c.053.523.253.889.6 1.098.347.21.762.314 1.246.314.168 0 .36-.013.575-.04.216-.025.418-.075.608-.148.189-.073.344-.18.465-.322.12-.141.176-.327.165-.557a.785.785 0 0 0-.252-.565 1.763 1.763 0 0 0-.607-.354 6.045 6.045 0 0 0-.844-.227c-.315-.063-.636-.13-.962-.204a8.943 8.943 0 0 1-.97-.267c-.31-.104-.589-.246-.836-.424s-.444-.405-.591-.683c-.147-.277-.22-.62-.22-1.028 0-.44.107-.808.322-1.106.216-.298.49-.539.82-.722a3.62 3.62 0 0 1 1.104-.385 6.54 6.54 0 0 1 1.16-.11c.42 0 .822.045 1.206.134.384.089.73.233 1.04.431.31.2.569.458.774.777.205.32.333.704.386 1.154h-1.877c-.084-.429-.281-.717-.591-.863a2.457 2.457 0 0 0-1.065-.22c-.126 0-.276.01-.449.031a2.07 2.07 0 0 0-.489.118 1.034 1.034 0 0 0-.386.251.6.6 0 0 0-.158.432c0 .22.076.398.229.534.152.136.352.248.599.337.247.09.528.165.844.228.315.062.64.13.978.204.325.073.646.162.961.267.316.104.597.246.844.423.247.178.447.403.6.675.152.273.228.607.228 1.005 0 .481-.11.89-.331 1.224-.22.335-.507.607-.86.816-.352.21-.743.361-1.174.456a5.99 5.99 0 0 1-2.705-.032 3.316 3.316 0 0 1-1.135-.526 2.522 2.522 0 0 1-.757-.879c-.185-.35-.282-.766-.292-1.248h1.798zm-3.059 2.605h-1.766v-1.13h-.032c-.22.408-.55.735-.985.98-.437.247-.88.37-1.333.37-1.072 0-1.848-.264-2.326-.793-.478-.528-.717-1.326-.717-2.394v-5.148h1.797v4.976c0 .712.137 1.214.41 1.507.274.293.657.44 1.152.44.378 0 .694-.058.946-.174.252-.115.457-.269.615-.463.158-.193.27-.426.339-.698.068-.272.102-.565.102-.879v-4.709h1.798v8.115zm-13.028-8.115h1.687v1.57h.032a1.81 1.81 0 0 1 .307-.644c.153-.209.337-.4.552-.573a2.86 2.86 0 0 1 .718-.416c.262-.104.53-.157.804-.157.21 0 .355.006.434.016l.244.032v1.726a8.96 8.96 0 0 0-.386-.055 3.199 3.199 0 0 0-.387-.023c-.305 0-.591.06-.859.18s-.502.298-.702.534c-.2.235-.357.526-.473.87a3.754 3.754 0 0 0-.173 1.194v3.861h-1.798v-8.115zm-8.721-3.092h9.115V9.49h-3.58v9.512h-1.97V9.49h-3.564V7.795z"/><path fill="#11AA73" d="m21.556 7.795-8.234-.001L10.778 0 8.234 7.793 0 7.791l6.662 4.819-2.544 7.795 6.661-4.817 6.659 4.817-2.544-7.793 6.662-4.817"/><path fill="#114728" d="m15.471 14.379-.577-1.767-4.115 2.976 4.692-1.209"/></g></svg>