<svg xmlns="http://www.w3.org/2000/svg" width="60" height="60"><g fill="none" fill-rule="evenodd"><circle cx="30" cy="30" r="30" fill="#1B17E8" fill-rule="nonzero"/><path fill="#FFF" d="M30.687 27.656c-.022 1.81 1.604 2.821 2.83 3.422 1.258.617 1.68 1.012 1.676 1.563-.01.844-1.004 1.216-1.935 1.23-1.624.026-2.568-.44-3.319-.793l-.585 2.755c.753.349 2.148.654 3.594.667 3.394 0 5.615-1.686 5.627-4.301.014-3.318-4.56-3.502-4.53-4.986.012-.45.438-.93 1.373-1.051.462-.062 1.739-.109 3.186.562l.568-2.666a8.615 8.615 0 0 0-3.024-.558c-3.195 0-5.443 1.71-5.46 4.156M44.63 23.73c-.62 0-1.142.363-1.375.922l-4.849 11.652h3.392l.675-1.877h4.145l.392 1.877H50L47.39 23.73h-2.76m.477 3.396.979 4.722h-2.681l1.702-4.722M26.575 23.73l-2.674 12.574h3.233l2.672-12.574h-3.23m-4.782 0-3.365 8.558-1.36-7.277c-.16-.812-.79-1.281-1.491-1.281h-5.5l-.077.365c1.129.246 2.412.644 3.189 1.07.476.26.611.487.767 1.104l2.578 10.035h3.416l5.237-12.574h-3.394"/></g></svg>