<svg xmlns="http://www.w3.org/2000/svg" xmlns:xlink="http://www.w3.org/1999/xlink" width="60" height="60"><defs><filter id="c"><feColorMatrix in="SourceGraphic" values="0 0 0 0 1.000000 0 0 0 0 1.000000 0 0 0 0 1.000000 0 0 0 1.000000 0"/></filter><circle id="a" cx="30" cy="30" r="30"/></defs><g fill="none" fill-rule="evenodd"><mask id="b" fill="#fff"><use xlink:href="#a"/></mask><g mask="url(#b)"><circle cx="30" cy="30" r="30" fill="#006CB4" fill-rule="nonzero"/><g filter="url(#c)"><path fill="#0068A3" d="M24.193 36.151a2.31 2.31 0 0 1 1.053-.283c.963 0 1.486.65 1.486 1.866 0 1.42-.702 2.106-1.837 2.106-.418 0-1.06-.134-1.523-.373v-5.302l.806-.194v2.158l.015.022zm-.015 3.04c.247.104.515.119.717.119.575 0 1.008-.351 1.008-1.583 0-.97-.366-1.277-.889-1.277-.313 0-.545.082-.85.247v2.478l.014.015zm-8.31-3.234h.052l1.06 3.786h.837l1.261-5.384h-.918l-.799 4.01h-.06l-1.09-4.017h-.694l-1.017 4.01h-.06l-.873-4.017h-.873l1.262 5.376h.837l1.022-3.794.053.03zm6.675 3.525v-.583c-.433.247-.821.388-1.247.388-.806 0-1.187-.403-1.187-1.314h2.538v-.283c0-1.24-.604-1.86-1.575-1.86-1.172 0-1.777.83-1.777 1.987 0 1.194.538 1.986 1.844 1.986.56 0 1.023-.157 1.374-.351l.03.03zm-.627-2.009h-1.792c.082-.762.448-1.12.926-1.12.418 0 .813.314.85 1.113l.016.007zm8.385 1.12h-.045l-1.747-4.248h-.948v5.376h.701v-3.816h.068l1.59 3.808h.493l1.59-3.905h.067v3.898h.837v-5.384h-.971l-1.673 4.241.038.03zm3.487-.762c0-1.329.746-1.993 1.777-1.993 1.023 0 1.777.657 1.777 1.986 0 1.292-.717 1.986-1.785 1.986-1.075 0-1.784-.694-1.784-1.993l.015.014zm2.733 0c0-1.03-.434-1.463-.964-1.463-.515 0-.963.426-.963 1.456 0 1.038.403 1.456.956 1.456.552 0 .956-.418.956-1.463l.015.014zm3.546-1.993c-.903 0-1.642.35-1.993.56v3.323h.806v-3.01c.239-.141.635-.276.948-.276.396 0 .695.105.695.702v2.569h.806V36.95c0-.784-.35-1.142-1.292-1.142l.03.03zm5.234 3.046v.575c-.35.194-.821.344-1.381.344-1.314 0-1.852-.792-1.852-1.994 0-1.157.598-1.994 1.77-1.994.97 0 1.575.613 1.575 1.852v.276h-2.546c0 .904.381 1.307 1.18 1.307.418 0 .806-.15 1.24-.396l.014.03zm-2.411-1.433h1.784c-.045-.8-.44-1.12-.859-1.12-.477 0-.843.35-.933 1.112l.008.008zm6.391-1.496h-.836l-.896 2.793h-.052l-1.001-2.8h-.859l1.494 3.793c-.194.56-.516.97-1.046.97v.62c.896 0 1.367-.552 1.762-1.598l1.412-3.8.022.022zM30.51 18.463c1.068 0 2.083.239 2.994.672.142.06.284.134.426.216l-.635.546-.948-.956-1.598 1.381-.948-1.008-2.98 2.606 1.904 2.038-.754.635 1.874 2.046-.746.635 2.68 2.904 1.59-1.433 1.374 1.523a8.276 8.276 0 0 1-.903.575c-1 .545-2.15.866-3.375.866-3.77 0-6.84-2.994-6.84-6.66 0-3.667 3.07-6.66 6.833-6.66l.052.074zm-1.247 6.227 1.62-1.426 1.464 1.575-1.628 1.42-1.471-1.584.015.015zm2.778 1.307-1.628 1.418 1.463 1.576 1.62-1.426-1.47-1.583.015.015zM28.09 21.98l1.62-1.426 1.456 1.575-1.628 1.419-1.463-1.583.015.015zm4.196-1.837-1.224 1.067 1.098 1.18 1.217-1.076-1.098-1.187.008.015zm.94 5.958 1.218-1.075 1.09 1.18-1.225 1.068-1.105-1.188.023.015zm2.286 1.322-1.225 1.068 1.09 1.18 1.217-1.076-1.105-1.187.023.015zm-.732-4.428.806-.717.724.784-.813.71-.74-.792.023.015zm-.232-3.069-.814.71.725.784.806-.717-.732-.792.015.015zm1.262 5.406.807-.717.731.784-.814.71-.739-.792.015.015zm-2.426-2.837-1.224 1.068 1.098 1.18 1.217-1.076-1.098-1.187.008.015z"/></g></g></g></svg>