<svg xmlns="http://www.w3.org/2000/svg" width="51" height="37"><g fill="none" fill-rule="evenodd"><path fill="red" d="M25.587 36.669h-.05c-.18 0-15.995-.051-19.975-1.13a6.424 6.424 0 0 1-4.515-4.542c-.74-4.08-1.071-8.213-1.046-12.345A69.14 69.14 0 0 1 1.047 6.29a6.505 6.505 0 0 1 4.49-4.594C9.414.669 24.797.669 25.46.669h.05c.154 0 16.02.026 19.975 1.104 2.168.59 3.877 2.31 4.49 4.524a65.13 65.13 0 0 1 1.02 12.396c0 4.132-.357 8.264-1.071 12.348-.613 2.181-2.322 3.926-4.516 4.517-3.877 1.026-19.285 1.026-19.923 1.026l.102.085z"/><path fill="#FFF" d="m20.486 10.986-.026 15.399 13.296-7.699-13.291-7.7z"/></g></svg>